<?xml version="1.0" standalone="no"?>
<!DOCTYPE svg PUBLIC "-//W3C//DTD SVG 20010904//EN"
 "http://www.w3.org/TR/2001/REC-SVG-20010904/DTD/svg10.dtd">
<svg version="1.0" xmlns="http://www.w3.org/2000/svg"
 width="1027.000000pt" height="1027.000000pt" viewBox="0 0 1027.000000 1027.000000"
 preserveAspectRatio="xMidYMid meet">
<metadata>
Created by potrace 1.11, written by Peter Selinger 2001-2013
</metadata>
<g transform="translate(0.000000,1027.000000) scale(0.100000,-0.100000)"
fill="#000000" stroke="none">
<path d="M1286 10261 c-3 -4 -5 -643 -5 -1420 l0 -1413 25 5 c13 2 24 0 24 -4
0 -5 11 -4 24 1 13 5 26 6 29 4 3 -3 30 -5 61 -4 31 0 63 1 71 0 8 0 21 0 28
0 23 -1 201 0 252 1 28 1 62 1 78 0 15 -1 35 -2 45 -2 25 -1 124 0 147 1 11 1
26 1 33 1 20 0 121 0 135 0 6 0 28 0 47 0 19 -1 43 -1 53 0 24 0 124 0 142 -1
8 0 22 0 30 0 8 0 22 0 30 0 8 0 21 0 28 -1 21 -1 121 0 142 1 11 1 26 1 33 1
20 0 121 0 135 0 6 0 28 0 47 0 19 -1 43 -1 53 0 24 0 124 0 142 -1 8 0 21 0
28 0 23 -1 201 0 252 1 28 1 62 1 78 0 15 -1 35 -2 45 -2 25 -1 124 0 147 1
11 1 26 1 33 1 20 0 121 0 135 0 6 0 28 0 47 0 19 -1 43 -1 53 0 24 0 124 0
142 -1 8 0 21 0 28 0 23 -1 201 0 252 1 28 1 62 1 78 0 15 -1 35 -2 45 -2 25
-1 124 0 147 1 11 1 26 1 33 1 20 0 121 0 135 0 6 0 28 0 47 0 19 -1 43 -1 53
0 24 0 124 0 142 -1 8 0 22 0 30 0 8 0 31 0 50 0 19 1 60 0 91 0 31 -1 58 1
61 3 2 3 18 1 34 -3 16 -5 29 -5 29 -2 0 4 19 6 43 4 23 -2 48 -3 55 -3 25 2
43 2 97 2 30 0 61 0 68 0 6 0 28 0 47 0 19 -1 61 -1 93 -1 31 0 82 0 113 0 31
-1 58 1 61 3 2 3 18 1 34 -3 16 -5 29 -5 29 -2 0 4 19 6 43 4 23 -2 48 -3 55
-3 28 2 45 2 97 1 30 -1 59 1 65 5 5 3 10 1 10 -5 0 -6 5 -8 11 -4 13 8 85 8
98 0 8 -6 -1 -72 -16 -106 -3 -8 -8 -26 -9 -40 -2 -14 -12 -52 -24 -85 -11
-33 -22 -68 -24 -78 -1 -9 -8 -23 -14 -29 -7 -7 -12 -20 -12 -29 0 -10 -23
-71 -51 -136 -28 -65 -51 -124 -53 -131 -1 -8 -7 -17 -12 -20 -12 -9 -60 -113
-57 -124 2 -4 -2 -8 -8 -8 -5 0 -16 -15 -24 -32 -7 -18 -23 -43 -34 -54 -11
-12 -18 -24 -15 -27 3 -3 -14 -32 -38 -66 -24 -34 -48 -71 -54 -82 -6 -11 -25
-36 -42 -55 -17 -19 -28 -34 -25 -34 6 0 -116 -151 -158 -195 -102 -109 -206
-210 -279 -273 -113 -97 -105 -91 -180 -144 -36 -25 -73 -53 -83 -62 -9 -9
-19 -16 -22 -16 -3 0 -28 -15 -57 -32 -71 -44 -103 -62 -168 -95 -30 -15 -57
-31 -60 -34 -4 -5 -37 -20 -50 -24 -3 0 -20 -9 -38 -19 -19 -9 -36 -15 -39
-12 -3 2 -13 -3 -24 -12 -10 -10 -35 -24 -56 -31 -21 -8 -56 -22 -78 -31 -65
-29 -232 -83 -261 -85 -6 0 -18 -5 -25 -11 -8 -6 -30 -10 -49 -10 l-35 1 -3
629 c-1 443 -5 632 -13 637 -6 3 -26 3 -45 -1 -19 -4 -34 -4 -34 0 0 5 -12 5
-27 1 -30 -7 -91 -6 -100 3 -3 2 -16 1 -29 -4 -16 -6 -24 -6 -24 1 0 6 -6 6
-18 0 -10 -5 -24 -6 -31 -1 -8 4 -25 5 -40 1 -28 -7 -90 -6 -98 3 -3 2 -16 1
-29 -4 -16 -6 -24 -6 -24 1 0 6 -6 6 -18 0 -10 -5 -24 -6 -31 -1 -8 4 -25 5
-40 1 -28 -7 -90 -6 -98 3 -3 2 -16 1 -29 -4 -16 -6 -24 -6 -24 1 0 6 -6 6
-18 0 -10 -5 -24 -6 -31 -1 -8 4 -25 5 -40 1 -25 -7 -71 -6 -101 1 -13 3 -15
-148 -18 -1298 l-2 -1301 27 -24 c16 -13 48 -40 73 -59 25 -19 47 -38 48 -42
2 -5 8 -8 13 -8 10 0 353 -262 382 -292 10 -10 22 -18 27 -18 5 0 25 -14 45
-31 19 -17 35 -29 35 -26 0 2 12 -6 28 -19 75 -66 249 -194 265 -194 16 0 17
31 17 514 0 407 3 516 13 524 7 6 42 16 77 22 36 5 83 15 105 21 22 6 51 13
65 16 53 11 336 96 355 106 11 6 27 12 35 12 14 2 124 45 214 83 22 9 83 38
135 64 53 25 98 42 99 37 2 -5 7 -7 11 -4 7 4 141 -129 141 -140 0 -2 21 -23
46 -47 25 -24 71 -70 102 -103 31 -33 85 -89 120 -124 34 -35 62 -68 62 -73 0
-5 5 -6 10 -3 6 3 10 -1 10 -9 0 -9 4 -16 9 -16 6 0 18 -13 28 -30 9 -16 23
-30 29 -30 7 0 15 -8 18 -18 4 -11 16 -24 29 -31 12 -7 60 -56 107 -110 47
-53 108 -116 136 -141 28 -25 61 -60 73 -77 13 -18 52 -61 88 -95 35 -35 77
-76 93 -92 l28 -29 66 48 c36 27 66 52 66 57 0 4 4 8 10 8 14 0 220 162 220
172 0 5 4 7 8 4 5 -3 25 10 47 29 21 19 42 32 46 29 5 -3 9 -1 9 5 0 5 19 23
43 40 23 17 53 40 67 51 145 114 180 144 180 154 0 7 -15 27 -32 44 -18 16
-51 50 -73 74 -37 40 -307 322 -518 542 -48 50 -111 116 -139 146 -29 30 -101
106 -161 167 -60 62 -106 113 -103 113 3 0 -5 10 -17 23 -12 13 -25 22 -29 20
-5 -2 -8 1 -8 6 0 15 37 51 52 51 6 0 9 3 6 6 -3 3 23 32 58 65 35 32 61 59
57 59 -3 0 6 9 21 21 14 11 80 84 147 162 66 78 134 157 150 176 16 19 29 37
29 41 0 4 11 19 25 34 14 15 27 33 28 39 1 7 9 19 18 27 22 22 151 220 163
253 6 15 14 27 18 27 8 0 42 70 40 83 -1 4 5 7 15 7 9 0 14 3 11 6 -4 3 19 56
50 117 31 62 57 114 57 117 0 3 11 28 24 55 12 28 36 84 53 125 17 41 34 84
39 95 21 49 111 337 124 395 3 14 12 54 20 90 19 80 41 199 50 265 4 28 11 58
16 67 6 10 5 19 -1 23 -6 4 -7 13 -1 24 31 56 42 799 13 834 -9 11 -22 13 -45
7 -18 -4 -42 -4 -52 0 -11 4 -28 4 -38 1 -10 -4 -43 -4 -73 -1 -31 3 -57 3
-59 0 -2 -4 -24 -4 -48 0 -24 3 -52 4 -61 0 -10 -3 -42 -3 -72 0 -31 3 -57 3
-59 0 -2 -4 -24 -4 -48 0 -24 3 -52 4 -61 0 -10 -3 -42 -3 -72 0 -31 3 -57 3
-59 0 -2 -4 -24 -4 -48 0 -24 3 -51 4 -60 1 -9 -3 -59 -4 -112 -1 -54 3 -99 2
-101 -1 -2 -3 -23 -3 -47 1 -24 3 -52 4 -61 0 -10 -3 -42 -3 -72 0 -31 3 -57
3 -59 0 -2 -4 -24 -4 -48 0 -24 3 -52 4 -61 0 -10 -3 -42 -3 -72 0 -31 3 -57
3 -59 0 -2 -4 -24 -4 -48 0 -24 3 -52 4 -61 0 -10 -3 -42 -3 -72 0 -31 3 -57
3 -59 0 -2 -4 -24 -4 -48 0 -24 3 -52 4 -61 0 -10 -3 -42 -3 -72 0 -31 3 -57
3 -59 0 -2 -4 -24 -4 -48 0 -24 3 -52 4 -61 0 -10 -3 -41 -3 -69 0 -29 3 -65
3 -82 0 -16 -4 -39 -3 -50 0 -11 4 -28 4 -38 1 -10 -4 -43 -4 -73 -1 -31 3
-57 3 -59 0 -2 -4 -24 -4 -48 0 -24 3 -52 4 -61 0 -10 -3 -42 -3 -72 0 -31 3
-57 3 -59 0 -2 -4 -24 -4 -48 0 -25 3 -54 3 -65 -1 -12 -5 -24 -4 -26 0 -3 5
-23 5 -45 1 -22 -4 -45 -4 -52 1 -7 4 -21 4 -31 0 -11 -4 -44 -4 -74 -1 -30 3
-57 3 -59 0 -2 -4 -24 -4 -48 0 -24 3 -52 4 -61 0 -10 -3 -42 -3 -72 0 -31 3
-57 2 -60 -2 -3 -5 -9 -6 -14 -3 -7 4 -44 6 -125 4 -16 0 -39 0 -50 1 -17 0
-128 1 -175 1 -8 -1 -44 -1 -80 0 -36 0 -72 0 -80 0 -8 -1 -44 -1 -80 0 -36 0
-72 0 -80 0 -83 -2 -175 1 -181 5 -4 2 -10 0 -13 -4 -3 -5 -25 -6 -49 -2 -24
3 -52 4 -61 0 -10 -3 -42 -3 -72 0 -31 3 -57 3 -59 0 -2 -4 -24 -4 -48 0 -24
3 -52 4 -61 0 -10 -3 -42 -3 -72 0 -31 3 -57 3 -59 0 -2 -4 -24 -4 -48 0 -24
3 -52 4 -61 0 -10 -3 -42 -3 -72 0 -31 3 -57 2 -60 -2 -3 -5 -9 -6 -14 -3 -4
2 -30 5 -56 6 -55 2 -88 25 -73 52 6 9 5 18 0 21 -6 4 -6 18 -1 36 5 19 5 30
-1 30 -6 0 -7 5 -3 11 8 13 9 278 0 286 -3 3 -1 13 4 22 5 10 5 23 0 31 -5 8
-5 21 0 30 5 9 5 22 1 28 -4 7 -5 33 -1 58 4 24 3 47 -1 50 -5 2 -4 16 1 29 5
14 5 27 0 30 -5 3 -5 18 0 35 5 17 5 30 0 30 -5 0 -5 13 0 29 4 17 5 31 0 33
-5 2 -2 18 5 36 l14 32 2870 0 c2785 0 2871 -1 2880 -19 8 -14 14 -137 10
-211 -1 -8 -1 -62 0 -120 0 -58 0 -112 0 -120 -1 -8 -1 -134 -1 -280 1 -146 1
-272 0 -280 0 -16 1 -222 2 -255 0 -11 0 -29 0 -40 -1 -11 -1 -27 0 -35 0 -8
0 -24 0 -35 -2 -34 -2 -37 -1 -150 0 -60 0 -117 0 -125 -1 -14 0 -210 1 -255
0 -11 0 -29 0 -40 -1 -11 -1 -27 0 -35 0 -8 0 -24 0 -35 -2 -28 -2 -7 -1 -390
0 -192 0 -357 -1 -365 0 -8 0 -62 1 -120 0 -58 0 -112 0 -120 -1 -8 -1 -134
-1 -280 1 -146 1 -272 0 -280 0 -16 1 -222 2 -255 0 -11 0 -29 0 -40 -1 -11
-1 -27 0 -35 0 -8 0 -24 0 -35 -2 -34 -2 -37 -1 -150 0 -60 0 -117 0 -125 -1
-14 0 -210 1 -255 0 -11 0 -29 0 -40 -1 -11 -1 -27 0 -35 0 -8 0 -24 0 -35 -2
-28 -2 -7 -1 -395 0 -195 1 -400 2 -455 1 -55 1 -107 0 -115 0 -8 0 -82 0
-163 l0 -148 -29 -27 c-15 -15 -37 -34 -48 -42 -11 -8 -56 -43 -101 -77 -45
-35 -86 -63 -92 -63 -6 0 -11 -7 -11 -15 0 -8 -4 -15 -9 -15 -4 0 -77 -52
-160 -115 -84 -63 -154 -115 -156 -115 -4 0 -21 -15 -90 -77 -14 -12 -25 -19
-25 -15 -1 4 -10 -4 -21 -18 -12 -14 -23 -23 -25 -20 -1 3 -16 -5 -31 -18 -36
-29 -53 -41 -265 -205 -98 -75 -182 -137 -187 -137 -5 0 -13 -9 -16 -21 -4
-11 -9 -18 -12 -15 -5 4 -74 -47 -303 -223 -47 -36 -86 -69 -88 -73 -2 -4 -10
-8 -17 -8 -7 0 -15 -3 -17 -7 -1 -5 -39 -35 -83 -68 -44 -33 -82 -62 -85 -65
-3 -4 -43 -35 -90 -70 -105 -79 -107 -81 -131 -103 -10 -9 -23 -17 -28 -17 -5
0 -16 -6 -23 -14 -13 -12 -112 -89 -388 -300 -162 -123 -185 -141 -190 -147
-7 -7 -152 -114 -167 -123 -12 -7 -76 38 -233 161 -30 24 -59 47 -65 51 -5 4
-91 69 -190 145 -99 75 -261 198 -360 273 -99 76 -181 141 -183 146 -2 4 -10
8 -17 8 -7 0 -15 4 -17 8 -1 4 -50 43 -108 87 -58 44 -173 132 -256 195 -82
63 -165 126 -184 140 -127 95 -226 173 -228 181 -2 5 -8 9 -14 9 -10 0 -94 60
-133 96 -13 12 -38 32 -57 45 -73 52 -263 202 -266 210 -2 5 -12 9 -22 9 -10
0 -22 9 -25 20 -4 11 -10 18 -14 15 -5 -2 -20 5 -33 18 -44 38 -68 57 -68 51
0 -2 -11 5 -25 18 -39 35 -70 61 -195 155 -63 48 -116 91 -118 95 -2 4 -9 8
-16 8 -7 0 -22 10 -33 22 -25 28 -47 88 -32 88 6 0 7 5 3 11 -9 15 -9 103 0
118 4 6 3 11 -3 11 -6 0 -6 11 -1 30 5 17 5 30 0 30 -4 0 -4 15 0 34 4 19 4
40 0 47 -5 7 -4 23 0 35 6 14 5 26 0 29 -5 3 -6 16 -2 28 9 24 8 56 -1 81 -3
8 -2 18 3 21 7 4 7 13 0 24 -5 10 -7 21 -3 24 8 9 7 293 -2 306 -3 6 -3 11 2
11 9 0 9 67 0 76 -3 3 -2 16 3 29 5 13 6 26 3 29 -8 8 -7 102 2 116 3 5 2 10
-4 10 -6 0 -6 11 -1 30 5 17 5 30 0 30 -4 0 -4 15 0 34 4 19 4 40 0 47 -5 7
-4 23 0 35 6 14 5 26 0 29 -5 3 -6 16 -2 28 9 24 8 56 -1 81 -3 8 -2 18 3 21
6 3 6 15 0 30 -6 15 -6 27 0 30 6 3 6 15 0 30 -6 15 -6 27 0 30 6 3 6 15 0 30
-6 15 -6 27 0 30 6 3 6 15 0 30 -6 15 -6 27 0 30 6 3 6 15 0 30 -6 15 -6 27 0
30 6 3 6 15 0 30 -6 15 -6 27 0 30 6 3 6 15 0 30 -6 15 -6 27 0 30 6 3 6 15 0
30 -6 15 -6 27 1 30 5 4 6 11 3 17 -9 14 -9 103 0 117 4 6 3 11 -3 11 -6 0 -6
11 -1 30 5 17 5 30 0 30 -4 0 -4 15 0 34 4 19 4 40 0 47 -5 7 -4 23 0 35 6 14
5 26 0 29 -5 3 -6 16 -2 28 9 24 8 56 -1 81 -3 8 -2 18 3 21 7 4 7 13 0 24 -5
10 -7 21 -3 24 8 9 7 293 -2 306 -3 6 -3 11 2 11 9 0 9 67 0 76 -3 3 -2 16 3
29 5 13 6 26 2 30 -3 3 -5 21 -3 40 4 57 -5 74 -36 66 -15 -4 -46 -4 -70 -1
-23 4 -46 3 -52 -3 -5 -5 -11 -5 -15 2 -5 7 -13 8 -25 2 -9 -5 -23 -6 -30 -1
-8 4 -25 5 -40 1 -28 -7 -90 -6 -98 3 -3 2 -16 1 -29 -4 -16 -6 -24 -6 -24 1
0 6 -6 6 -18 0 -10 -5 -24 -6 -31 -1 -8 4 -25 5 -40 1 -28 -7 -90 -6 -98 3 -3
2 -16 1 -29 -4 -16 -6 -24 -6 -24 1 0 6 -6 6 -18 0 -10 -5 -24 -6 -31 -1 -8 4
-25 5 -40 1 -28 -7 -90 -6 -98 3 -3 2 -16 1 -30 -5 -13 -5 -22 -5 -19 0 3 4
-9 5 -27 2 l-32 -7 -2 -1764 c-2 -1646 -1 -1765 15 -1785 10 -12 23 -20 31
-17 8 3 11 0 7 -7 -4 -6 -3 -11 1 -11 11 0 117 -79 121 -91 2 -5 10 -9 17 -9
8 0 32 -18 55 -40 22 -21 40 -37 40 -35 0 3 24 -14 53 -36 28 -22 86 -66 127
-97 41 -31 84 -65 94 -74 11 -10 26 -18 33 -18 7 0 13 -4 13 -9 0 -4 33 -32
72 -62 40 -29 75 -56 78 -59 3 -3 38 -29 78 -59 39 -29 72 -57 72 -62 0 -5 5
-9 11 -9 9 0 165 -113 179 -130 3 -3 38 -30 78 -59 39 -30 72 -58 72 -63 0 -5
4 -6 10 -3 5 3 15 -3 22 -15 7 -11 16 -20 20 -20 7 0 36 -21 303 -225 66 -50
163 -124 215 -163 52 -39 111 -86 131 -105 20 -18 42 -31 48 -29 6 2 11 -3 11
-12 0 -9 6 -16 13 -16 7 0 27 -13 45 -29 17 -17 32 -28 32 -25 0 2 24 -15 54
-38 29 -24 67 -53 82 -65 16 -11 65 -49 109 -82 43 -34 83 -61 88 -61 4 0 5
-4 2 -10 -3 -5 -1 -10 5 -10 6 0 52 -31 103 -70 117 -88 106 -80 148 -115 20
-16 50 -40 65 -52 57 -42 131 -99 180 -136 27 -21 123 -95 214 -164 91 -69
167 -129 168 -134 2 -5 8 -9 13 -9 8 0 134 -93 149 -109 3 -3 12 -10 21 -16
13 -8 143 -107 194 -147 58 -47 148 -108 158 -107 7 0 31 15 54 32 182 138
260 198 272 209 17 14 191 147 331 251 52 40 100 76 107 82 22 18 36 29 163
125 187 140 204 153 221 173 9 9 20 17 24 17 4 0 26 15 49 34 23 18 82 64 131
101 50 37 102 79 118 93 15 14 27 22 27 16 0 -5 4 -4 8 1 13 20 99 85 111 85
6 0 11 7 11 15 0 8 5 15 10 15 18 0 25 3 35 15 6 7 80 66 165 131 85 65 157
121 158 126 2 4 8 8 13 8 5 0 47 30 95 68 47 37 106 81 131 99 26 18 49 36 52
40 3 4 60 49 126 98 66 49 129 98 139 107 11 10 23 18 27 18 4 0 14 6 21 13
13 13 159 126 311 241 42 32 77 63 77 67 0 5 9 9 19 9 10 0 22 7 25 16 4 9 9
15 12 12 4 -5 38 21 95 74 16 15 38 30 49 33 11 4 20 10 20 15 0 5 17 19 38
31 20 13 44 31 53 41 9 10 21 18 27 18 6 0 12 4 14 8 2 5 89 73 193 152 105
79 217 165 250 190 l60 47 0 3669 0 3669 -3842 2 c-2114 1 -3845 -2 -3847 -6z"/>
</g>
</svg>
