<?xml version="1.0" encoding="utf-8"?>
<!-- Generator: Adobe Illustrator 24.1.2, SVG Export Plug-In . SVG Version: 6.00 Build 0)  -->
<svg version="1.1" id="f6ed740f-4c53-497f-bfef-ebd7a0ab3453"
	 xmlns="http://www.w3.org/2000/svg" xmlns:xlink="http://www.w3.org/1999/xlink" x="0px" y="0px" viewBox="0 0 1139.1 783.9"
	 style="enable-background:new 0 0 1139.1 783.9;" xml:space="preserve">
<style type="text/css">
	.st0{opacity:0.1;fill:#6C63FF;enable-background:new    ;}
	.st1{opacity:0.2;}
	.st2{fill:#00936D;}
	.st3{opacity:0.1;fill:#00936D;enable-background:new    ;}
	.st4{fill:#46455B;}
	.st5{fill:#6C63FF;}
	.st6{fill:#004F17;}
	.st7{fill:#A8A8A8;}
	.st8{opacity:0.2;enable-background:new    ;}
	.st9{fill:#F4F4F4;}
	.st10{fill:url(#SVGID_1_);}
	.st11{opacity:0.1;}
	.st12{fill:#FBBEBE;}
	.st13{opacity:0.1;enable-background:new    ;}
	.st14{fill:#320015;}
	.st15{opacity:0.1;fill:#110003;enable-background:new    ;}
	.st16{fill:#320028;}
	.st17{fill:#2E001B;}
	.st18{fill:url(#SVGID_2_);}
	.st19{fill:#3F3D56;}
	.st20{fill:#2F2E41;}
	.st21{opacity:0.1;fill:#008BED;enable-background:new    ;}
	.st22{opacity:0.1;fill:none;stroke:#6C63FF;stroke-width:3;stroke-miterlimit:10;enable-background:new    ;}
</style>
<path class="st0" d="M793.5,235.6c0.9-1.2,1.3-2.7,1.4-4.2c0-9.1-18.6-16.5-41.5-16.5s-41.5,7.4-41.5,16.5c0,1.7,0.6,3.3,1.7,4.7
	c-25.5,2.9-42.7,8.2-42.7,14.3c0,9.1,38,16.5,85,16.5s85-7.4,85-16.5C840.9,243.9,821.5,238.3,793.5,235.6z"/>
<g class="st1">
	<path class="st2" d="M910.1,713.8c-0.4,2.6-0.5,5.2-0.4,7.9c17.4,0.3,34.9,0.9,52.5,1.8c0.1-0.7,0.2-1.4,0.3-2.1
		c1.1-7.3,0.3-14.8-2.5-21.7c-3.6-8.8-10.4-15.1-18.8-16.3s-16.7,2.9-22.6,10.3C914,699.5,911.1,706.4,910.1,713.8z"/>
	
		<ellipse transform="matrix(0.1423 -0.9898 0.9898 0.1423 139.479 1512.3234)" class="st2" cx="942.4" cy="675.7" rx="34.7" ry="26.5"/>
	
		<ellipse transform="matrix(0.1423 -0.9898 0.9898 0.1423 186.1433 1482.3258)" class="st2" cx="948.4" cy="633.8" rx="34.7" ry="26.5"/>
	
		<ellipse transform="matrix(0.1423 -0.9898 0.9898 0.1423 232.8186 1452.321)" class="st2" cx="954.4" cy="591.8" rx="34.7" ry="26.5"/>
	
		<ellipse transform="matrix(0.1423 -0.9898 0.9898 0.1423 279.4932 1422.3157)" class="st2" cx="960.4" cy="549.9" rx="34.7" ry="26.5"/>
	<path class="st2" d="M1099.7,277c4.2-4.1,8.2-8.4,11.8-13l-67.2-21.2l74.4,11.3c19-29.4,25-65.2,16.7-99.2l-107.4,37.5l101.9-54.5
		c-26.1-65-100-96.5-165-70.4s-96.5,100-70.4,165c2.2,5.6,4.9,10.9,7.8,16.1c-6.6,6.3-12.5,13.3-17.6,20.8l82.7,59.3l-90.7-45.7
		c-19.4,38.2-18.1,83.7,3.3,120.8c-50.7,48.3-52.6,128.6-4.3,179.3c48.3,50.7,128.6,52.6,179.3,4.3c42.4-40.4,51.6-104.5,22.3-155.2
		C1119.8,391.8,1129,327.7,1099.7,277L1099.7,277z"/>
	<path class="st3" d="M864.4,322.4c-4.1,28.2,1.4,56.9,15.7,81.5c-50.7,48.3-52.6,128.6-4.3,179.3s128.6,52.6,179.3,4.3
		c42.4-40.4,51.6-104.5,22.3-155.2C1097.3,413.3,866.4,308.3,864.4,322.4z"/>
</g>
<g class="st1">
	<path class="st2" d="M166.5,676.8c0.4,2.3,1,4.5,1.8,6.6c14.2-4.6,28.6-8.9,43.1-13c-0.1-0.6-0.2-1.2-0.3-1.8
		c-1-6.4-3.7-12.4-7.8-17.4c-5.3-6.3-12.4-9.7-19.6-8.4s-12.8,7-15.6,14.8C165.8,663.8,165.3,670.4,166.5,676.8z"/>
	
		<ellipse transform="matrix(0.9877 -0.1563 0.1563 0.9877 -97.1647 36.3302)" class="st2" cx="182.5" cy="636.2" rx="22.6" ry="30.3"/>
	
		<ellipse transform="matrix(0.9872 -0.1595 0.1595 0.9872 -93.4978 36.2675)" class="st2" cx="179.1" cy="600.4" rx="22.7" ry="30.4"/>
	
		<ellipse transform="matrix(0.9877 -0.1563 0.1563 0.9877 -85.9211 33.4645)" class="st2" cx="169.9" cy="563.2" rx="22.6" ry="30.3"/>
	
		<ellipse transform="matrix(0.9877 -0.1563 0.1563 0.9877 -80.298 32.0332)" class="st2" cx="163.6" cy="526.7" rx="22.6" ry="30.3"/>
	<path class="st2" d="M203.8,261.8c2.4-4.5,4.4-9.2,6.1-14l-60.2,0.9l63.4-11.2c4-15.5,4.6-31.7,1.9-47.5
		c-2.4-14-7.4-27.3-14.8-39.4l-77.1,60.7l68.1-73.3c-24.1-29.2-62.3-44.8-101.7-37.5c-59,10.8-98.2,68.5-87.8,128.8
		c4.1,24.4,16.2,46.6,34.5,63.3c-3.7,7.1-6.6,14.5-8.7,22.1l82.9,26.4l-85.8-12.9c-1.8,12-1.6,24.1,0.4,36.1
		c4.1,24.4,16.2,46.6,34.5,63.3c-11.5,22-15.4,47.2-11.2,71.7c10.4,60.3,66.6,100.4,125.5,89.5s98.2-68.5,87.8-128.8
		c-4.1-24.4-16.2-46.6-34.5-63.3c11.5-22,15.4-47.2,11.2-71.7C234.2,300.8,222,278.5,203.8,261.8z"/>
	<path class="st3" d="M25,364.4c4.1,24.4,16.2,46.6,34.5,63.3c-11.5,22-15.4,47.2-11.2,71.7c10.4,60.3,66.6,100.4,125.5,89.5
		s98.2-68.5,87.8-128.8c-4.1-24.4-16.2-46.6-34.5-63.3C238.2,375.6,22.9,352.1,25,364.4z"/>
</g>
<path class="st4" d="M113.9,593.4c0,52.3,32.8,94.6,73.4,94.6"/>
<path class="st5" d="M187.2,688c0-52.9,36.6-95.7,81.9-95.7"/>
<path class="st6" d="M140.4,598.1c0,49.7,20.9,89.9,46.8,89.9"/>
<path class="st6" d="M187.2,688c0-67.6,42.3-122.3,94.6-122.3"/>
<ellipse class="st0" cx="527.8" cy="727.6" rx="511" ry="17"/>
<ellipse class="st0" cx="178.7" cy="698.3" rx="18.7" ry="3.2"/>
<path class="st7" d="M166.2,683.6c0,0,10.7-0.3,13.9-2.6s16.4-5,17.2-1.3s16,18.2,4,18.3s-27.9-1.9-31.1-3.8
	S166.2,683.6,166.2,683.6z"/>
<path class="st8" d="M201.4,696.7c-12,0.1-27.9-1.9-31.1-3.8c-2.4-1.5-3.4-6.8-3.7-9.3h-0.4c0,0,0.7,8.6,3.9,10.5s19.1,3.9,31.1,3.8
	c3.5,0,4.7-1.3,4.6-3.1C205.4,696,204,696.7,201.4,696.7z"/>
<path class="st9" d="M687.5,198.9c-14.3-70.7-75.8-124-150.7-124c-59.5,0-110.7,33.8-136.3,83c-61.5,6.1-109.7,58.4-109.7,122
	c0,67.6,55.3,123,123,123h266.5c56.4,0,102.5-46.1,102.5-102.5C783.1,246.7,741.2,202.1,687.5,198.9z M569.7,259.4v77.9h-65.6v-77.9
	h-69.7l102.5-102.5l102.5,102.5L569.7,259.4z"/>
<linearGradient id="SVGID_1_" gradientUnits="userSpaceOnUse" x1="403.54" y1="456.9673" x2="403.54" y2="727.9202" gradientTransform="matrix(1 0 0 -1 -30.47 727.95)">
	<stop  offset="0" style="stop-color:#808080;stop-opacity:0.25"/>
	<stop  offset="0.54" style="stop-color:#808080;stop-opacity:0.12"/>
	<stop  offset="1" style="stop-color:#808080;stop-opacity:0.1"/>
</linearGradient>
<path class="st10" d="M436.6,247.7c-1-5.7-0.5-11.9-3.1-17c-0.3-0.6-0.7-1.1-1.2-1.5c-0.7-0.4-1.4-0.5-2.1-0.5
	c-2.4-0.1-4.7-0.1-7.1-0.1c-0.7,0-1.4,0.1-1.8,0.7c0,0.1-0.1,0.1-0.1,0.2c-2.7-3-4.8-6.8-7.7-9.6c0.4-0.1,0.8-0.3,1.3-0.4
	c0-0.3-0.1-0.6-0.2-0.8c0-0.1,0-0.2-0.1-0.2s-0.1-0.4-0.1-0.6s-0.1-0.2-0.1-0.3c-0.1-0.2-0.1-0.4-0.2-0.5c0-0.1-0.1-0.2-0.1-0.3
	l-0.2-0.5l-0.1-0.2c-0.1-0.2-0.2-0.4-0.2-0.5l-0.1-0.2c-0.1-0.2-0.2-0.4-0.3-0.6l-0.1-0.2c-0.1-0.2-0.2-0.4-0.3-0.6
	c0,0-0.1-0.1-0.1-0.1c-0.1-0.2-0.3-0.5-0.4-0.7l0,0c-1.1-1.9-2.4-3.7-3.3-5.6c-1.6-3.4-2.2-7.1-3.3-10.7s-3-7.2-6.2-8.9
	c-1.6-0.8-3.7-1.5-3.8-3.3c0-0.6,0.1-1.1,0.4-1.6c0.5-1.1,1-2.3,1.6-3.3c0.2-0.4,0.5-0.8,0.7-1.1l0.2-0.3c0.2-0.3,0.4-0.6,0.6-0.8
	l0.3-0.3c0.2-0.3,0.4-0.5,0.6-0.8l0.3-0.3c0.3-0.3,0.6-0.6,1-1c0.3-0.2,0.5-0.5,0.7-0.9c0.1-0.3,0.1-0.7,0-1.1
	c-0.2-2.9,1.3-5.5,3-7.8s3.6-4.5,4.6-7.2c0.1-0.3,0.2-0.6,0.3-0.9c0-0.1,0.1-0.2,0.1-0.3c0-0.2,0.1-0.4,0.1-0.6l0.1-0.4
	c0-0.2,0-0.4,0.1-0.6v-0.4v-0.6v-0.4c0-0.2,0-0.4,0-0.6s0-0.2,0-0.4s0-0.4,0-0.6v-0.3c0-0.2-0.1-0.5-0.1-0.7c0-0.1,0-0.2,0-0.2
	c0-0.3-0.1-0.7-0.2-1l0,0c-0.5-2.1-1.1-4.2-1.8-6.3c-0.4-1.3-0.9-2.5-1.5-3.6c0.4-0.1,0.8-0.1,1.1-0.2c-0.3-0.5-0.6-0.9-0.8-1.4
	c2.3-3.4,4-7.1,5.1-11.1c0.6-2.8,0.9-5.7,1-8.6c0.5-8.7,1.1-17.4,0.4-26v-0.3c0.3-1.9,0.3-3.7,0.1-5.6c-0.2-3.6-1.3-7.2-3.1-10.3
	c-1.9-3.1-5.1-5.8-8.7-6.1c-0.6,0.7-1.2,1.3-1.9,1.8c-1.1-0.9-1.9-2.2-2.3-3.5c8.5-1.3,15.1-8.2,16.1-16.8c0-0.3,0.1-0.6,0.1-0.9
	c0-0.1,0-0.3,0-0.4s0-0.4,0-0.6s0-0.3,0-0.5V49c0-0.2,0-0.4,0-0.6s0-0.2,0-0.3s0-0.4-0.1-0.7c0-0.1,0-0.2,0-0.2l-0.1-0.7v-0.2
	c0-0.2-0.1-0.5-0.1-0.8v-0.1c0-0.3-0.1-0.5-0.2-0.8l0,0c-0.4-1.8-1.2-3.6-2.1-5.2c0.8-1.8,1.3-3.6,1.5-5.6c0-0.3,0.1-0.7,0.1-1
	s0-0.4,0-0.7s0-0.2,0-0.3c0-0.3,0-0.6,0-0.9c0,0,0-0.1,0-0.1c-0.1-4.8-2.1-9.4-5.4-12.9c0.4-0.6,0.7-1.3,1-2l0,0
	c0.1-0.2,0.1-0.4,0.2-0.6l0,0c0.1-0.2,0.1-0.4,0.2-0.6v-0.1l0.1-0.6c0,0,0-0.1,0-0.1c0-0.2,0.1-0.4,0.1-0.7s0-0.5,0.1-0.7
	c0-0.1,0-0.2,0-0.2s0-0.3,0-0.5v-0.2c0-0.2,0-0.3,0-0.5s0-0.1,0-0.2c-0.4-6.5-6-11.5-12.5-11.1c-5.8,0.3-10.5,4.8-11.1,10.6
	c-0.1,1.2-0.1,2.4,0.1,3.6c-5.9,2.9-9.9,8.6-10.7,15.1c-0.1,1.1-0.2,2.2-0.1,3.2c-1.7,2.7-2.8,5.8-3,9l0,0c0,0.1,0,0.2,0,0.4
	c0,0.4,0,0.8,0,1.2c0,6,2.7,11.7,7.5,15.4c1,1.6,2.3,2.9,3.8,4c0.3,0.8,0.5,1.7,0.6,2.5c0.2,2.3-0.6,4.6-2.3,6.2
	c-0.4,0.4-0.9,0.7-1.4,1c-0.5-0.1-0.9-0.1-1.4,0c-5.2,1.6-10.1,4.8-12.5,9.7c-0.5,1.1-0.9,2.3-1.2,3.5l-0.3,0.4
	c-3.1,4.9-5.4,10.3-6.7,16c-0.6,2.9-1.1,5.9-2.4,8.6c-0.3,0.6-0.6,1.1-0.8,1.8c-0.1,0.9-0.2,1.9-0.1,2.8c-0.1,1.7-1.1,3.2-1.5,4.9
	c-0.2,1-0.2,2-0.3,3c-0.5,1.7-1.1,3.4-1.9,5c-1.1,2.9-1,6.2-1.8,9.2c-0.1,0.5-0.3,1-0.6,1.4c-0.6,0.5-1.3,0.9-2.1,1.1
	c-1.1,0.7-1.9,1.8-2.1,3.1c-0.2,1.3-0.2,2.6-0.1,3.9l0.4,5.1l-5.7,1.7l-9.3,2.9c-2.7,0.7-5.3,1.8-7.7,3.3c-2.1,1.5-3.8,3.5-4.9,5.9
	c-0.9,2.5-1.6,5.1-1.8,7.7c-0.9,7.4-2.5,14.7-4.8,21.8c-0.2,0.5-0.4,1.1-0.6,1.6l0,0l-0.6,1.6c0,0.1-0.1,0.2-0.1,0.3l-0.5,1.3
	c-0.2,0.5-0.5,1.1-0.8,1.6l21.8,7.3c0,0.3,0,0.5,0.1,0.9c0.8,5.4,0.4,10.8,1.1,16.2c0.1,0.9,0.3,1.8,0.6,2.6c-0.6,0.5-1,1.1-1.1,1.8
	c-0.2,1.1-0.3,2.3-0.1,3.5c0.2,2.7,0.5,5.5,0.7,8.2c0.1,1,0.1,2,0,3c-0.3,1.8-1.3,3.4-1.9,5.1s-0.5,4,0.9,5c1,0.7,2.3,0.8,3.4,0.3
	c1.1-0.5,2.1-1.3,2.9-2.2c4.4-4.9,6.4-11.5,9.8-17.1c0.9-1.3,1.7-2.7,2.3-4.1c0.5-1.1,0.8-2.2,1.1-3.4c0.5-1.5,1.2-3,1.9-4.4
	c0.4-0.8,2-2.8,1.6-3.7c-0.6-1.5-6.5-2.9-8-3.4c-0.9-0.4-2-0.5-2.9-0.1c-0.1,0.1-0.3,0.2-0.4,0.3l-0.5-6.6c0.9-0.1,1.8-0.2,2.6-0.3
	c0-1.2,0-2.5-0.1-3.8c0-1.1,0-2.3-0.1-3.4c-0.1-2.8-0.1-5.6-0.2-8.4c0-1.6-0.1-3.2-0.3-4.9c-0.3-2.4-1.1-4.9-1.3-7.3
	c0.4-0.3,0.8-0.5,1.2-0.6l0,0c0.7-0.1,1.4-0.1,2.1-0.1h0.6c3.1,0,6.1-0.9,8.8-2.4c2.8-1.4,5.3-3.2,8-4.7l1-0.5l0.4-0.2l0.6-0.3
	l0.5-0.2l0.1-0.1c1.6-0.8,3.2-1.5,4.7-2.3c0.1,0.2,0.2,0.3,0.3,0.5c0.8,1,2.1,1.5,3.3,1.2c-1.9,4.6-4.1,8.9-4.7,13.9
	c-0.8,7.1,2,14,4.8,20.6l8.9,21c1,2.3,2.3,4.9,4.7,5.5c1.5,0.2,3.1-0.1,4.5-0.9c4.1-1.9,7.7-4.7,11.5-7.3l0.1,0.1
	c3.4,2.7,5.5,6.4,7.8,9.9l6.2,10.2c0,0.5,0,1,0.2,1.5c0.5,0.8,1,1.6,1.8,2.3c4,4.3,6.6,9.6,7.5,15.4c0.1,1.5,0.5,2.9,1.2,4.2
	c1.7,2.3,5.2,2.2,7.7,0.9c0.8-0.4,1.4-0.9,1.9-1.6c0.4-0.7,0.7-1.6,0.8-2.4c0.5-2.1,0.7-4.3,0.8-6.4
	C438.8,255.6,437.3,251.7,436.6,247.7z M400.8,59.3c0.4-0.3,0.9-0.6,1.3-0.9c-0.8,2.5-2.2,4.9-4,6.9l0,0c-0.4,0.5-0.9,0.9-1.3,1.3
	v-0.3c0-1,0-2.1,0-3.2C398.4,62.1,399.8,60.8,400.8,59.3z M365.5,138.2l0.1-0.2c0.4,0.3,0.7,0.6,0.9,0.9c-0.5,1.1-0.4,2.3,0.1,3.4
	c0.5,0.9,1.5,1.7,1.3,2.7s-1.5,1.4-2.5,1.6c-1.4,0.2-2.7,0.5-4.1,0.7c0,0,0,0,0-0.1c0-1.1-0.1-2.3-0.5-3.3
	C363.2,142.9,364.6,140.6,365.5,138.2z"/>
<path class="st4" d="M407.1,21.8c3.3-5.6,1.5-12.9-4.2-16.3C397.3,2.2,390,4,386.7,9.7c-0.8,1.4-1.4,3-1.6,4.6
	c-0.1,1.2-0.1,2.4,0.1,3.6c-6.9,3.3-11.2,10.4-10.8,18.1c-5.7,8.9-3.2,20.7,5.7,26.4c8.9,5.7,20.7,3.2,26.4-5.7c2-3.1,3-6.6,3-10.3
	c0-0.3,0-0.6,0-0.9C414.4,38,413.4,28.2,407.1,21.8L407.1,21.8z"/>
<g class="st11">
	<path d="M385.1,14.9l0.2-0.1c0-0.2-0.1-0.4-0.1-0.6c0,0,0,0.1,0,0.1C385.2,14.5,385.1,14.7,385.1,14.9z"/>
	<path d="M412.4,34.3c-0.3,2.9-1.4,5.7-3,8.1c0,0.3,0,0.6,0,0.9c0,10.5-8.6,19-19.2,19c-9.9,0-18.1-7.6-18.9-17.4
		c0,0.5-0.1,1-0.1,1.6c0,10.5,8.5,19.1,19.1,19.1c10.5,0,19.1-8.5,19.1-19.1c0-0.3,0-0.6,0-0.9c1.6-2.4,2.6-5.2,3-8.1
		c0.2-1.3,0.2-2.6,0.1-3.8C412.5,33.8,412.5,34,412.4,34.3z"/>
	<path d="M408.7,14.1c-0.2,1.6-0.7,3.1-1.6,4.5c0.3,0.3,0.6,0.7,1,1.1c0.3-0.8,0.5-1.7,0.6-2.6C408.9,16.1,408.9,15.1,408.7,14.1z"
		/>
</g>
<path class="st12" d="M330.3,226.5c0.1,1.1,0.4,2.1,0.9,3.1c0.5,1,1.4,1.7,2.5,1.9c1,0,2-0.3,2.8-0.8c1.7-0.9,3.5-1.9,4.3-3.6
	s0.7-3.6,0.6-5.5l-1.1-14.5c-2.7-0.1-5.5-0.1-8.2,0.1s-3.2,0.8-2.8,3.5C329.9,215.8,329.5,221.2,330.3,226.5z"/>
<path class="st12" d="M410.9,236.3l6.5,10.6c0.3,0.6,0.8,1.1,1.4,1.3c0.5,0.1,0.9,0,1.4-0.2c2.1-1.1,4-2.6,5.5-4.5
	c1.2-1.1,2.1-2.5,2.6-4c0.4-1.7-0.1-3.5-1.3-4.8c-0.8-0.7-1.6-1.3-2.4-1.8c-5.2-3.5-7.5-10.1-12.6-13.7c-0.3-0.2-0.6-0.4-1-0.5
	c-0.4,0-0.7,0.2-1.1,0.4l-7,3.8c-3,1.6-2.1,1.9,0.2,3.6C406.5,229.1,408.5,232.8,410.9,236.3z"/>
<path class="st4" d="M344.5,218.1c-0.9-0.4-2-0.4-2.9-0.1c-0.9,0.5-1.4,1.4-1.5,2.4c-0.2,1-0.2,2-0.4,2.9c-0.6,1.5-1.6,2.9-2.9,4
	c-0.5,0.6-1.1,1-1.8,1.2c-1,0.2-2-0.2-2.9,0c-1.1,0.3-2,1.2-2.3,2.3c-0.3,1.1-0.3,2.3-0.1,3.4l0.7,8.1c0.1,1,0.1,2,0,3
	c-0.3,1.8-1.3,3.4-1.9,5.1s-0.5,3.9,0.9,5c1,0.7,2.3,0.8,3.5,0.3c1.1-0.5,2.1-1.2,2.9-2.2c4.4-4.8,6.4-11.3,9.8-16.9
	c0.9-1.3,1.7-2.6,2.3-4c0.5-1.1,0.8-2.2,1.1-3.3c0.5-1.5,1.2-2.9,1.9-4.3c0.4-0.8,2-2.7,1.6-3.6C352,219.9,345.9,218.5,344.5,218.1z
	"/>
<path class="st4" d="M423.9,240.4c-1,1.9-2.6,3.3-4.6,4c-0.6,0.2-1.1,0.4-1.6,0.8c-0.6,0.8-0.7,1.8-0.3,2.7c0.5,0.8,1.1,1.6,1.8,2.2
	c3.9,4.2,6.6,9.5,7.5,15.1c0.1,1.5,0.5,2.9,1.2,4.1c1.7,2.3,5.2,2.1,7.8,0.8c0.8-0.4,1.4-0.9,1.9-1.6c0.4-0.7,0.7-1.5,0.8-2.4
	c0.5-2.1,0.7-4.2,0.8-6.4c0-4-1.6-7.9-2.3-11.9c-1-5.6-0.5-11.7-3.1-16.8c-0.2-0.6-0.7-1.1-1.2-1.5c-0.7-0.3-1.4-0.5-2.1-0.5
	c-2.4-0.1-4.7-0.1-7.1-0.1c-0.7,0-1.4,0.1-1.8,0.7c-0.2,0.6-0.1,1.4,0.3,1.9C423.2,234.7,425.6,236.9,423.9,240.4z"/>
<path class="st4" d="M367.6,139.5c-1.4,1.1-1.7,3.1-0.9,4.6c0.5,0.9,1.5,1.7,1.3,2.7s-1.5,1.4-2.5,1.6c-9.2,1.5-18.1,4.1-27,6.8
	l-9.3,2.8c-2.7,0.7-5.4,1.8-7.8,3.2c-2.1,1.5-3.8,3.5-4.9,5.8c-0.9,2.4-1.6,5-1.8,7.6c-1.4,9.6-3.2,19.2-7.5,27.8l22.6,7.4
	c2.2,0.8,4.5,1.4,6.8,1.7c2.2,0.2,4.4,0.1,6.6-0.3c-0.1-5-0.2-10.3-0.4-15.3c0-1.6-0.1-3.2-0.3-4.8c-0.3-2.4-1.1-4.8-1.3-7.2
	c1-0.9,2.6-0.6,3.9-0.6c3.1,0,6.2-0.9,8.9-2.4c2.7-1.4,5.3-3.2,8-4.6c4.5-2.4,9.7-4,13.2-7.8c-1.8,6.8-6,12.6-6.8,19.6
	s2,13.8,4.8,20.3l8.9,20.7c1,2.3,2.3,4.9,4.7,5.4c1.5,0.2,3.1-0.1,4.5-0.9c8.2-3.8,14.8-11.1,23.5-13.4c-0.7-4.3-4.1-7.9-6-11.9
	c-1.6-3.3-2.2-7-3.3-10.6s-3-7.1-6.3-8.8c-1.6-0.8-3.7-1.5-3.8-3.2c0-0.6,0.1-1.1,0.4-1.6c1.2-3,3-5.6,5.3-7.8
	c0.3-0.2,0.5-0.5,0.7-0.9c0.1-0.3,0.1-0.7,0-1c-0.2-2.8,1.3-5.4,3-7.7s3.6-4.4,4.6-7.1c1.6-4.6,0-9.6-1.6-14.2
	c-0.5-1.9-1.4-3.7-2.7-5.2c-2.1-2.2-5.4-2.9-8.4-3.2C387,136,375.5,133.4,367.6,139.5z"/>
<g class="st11">
	<path d="M405,159.5c-1.7,2.3-3.2,4.9-3,7.7c0,0.3,0,0.7,0,1c-0.2,0.3-0.4,0.6-0.7,0.9c-2.3,2.1-4.2,4.8-5.3,7.8
		c-0.2,0.5-0.4,1.1-0.4,1.6c0.2,1.1,1,2,2,2.3c1-1.7,2.3-3.2,3.7-4.5c0.3-0.2,0.5-0.5,0.7-0.9c0.1-0.3,0.1-0.7,0-1
		c-0.2-2.8,1.3-5.4,3-7.7s3.6-4.4,4.6-7.1c0.8-2.6,0.9-5.4,0.2-8c-0.1,0.3-0.1,0.5-0.2,0.8C408.7,155.1,406.7,157.3,405,159.5z"/>
	<path d="M366.6,140.9c0.7-0.1,1.2-0.6,1.4-1.3c0-0.1,0-0.3,0-0.4l-0.4,0.3C367.1,139.9,366.8,140.4,366.6,140.9z"/>
	<path d="M336.7,204.4c-2.3-0.3-4.6-0.9-6.8-1.7l-20-6.6c-0.8,2.2-1.6,4.3-2.6,6.4l22.6,7.4c2.2,0.8,4.5,1.4,6.8,1.7
		c2.2,0.2,4.4,0.1,6.6-0.3c-0.1-2.4-0.1-4.8-0.2-7.2C341,204.5,338.8,204.6,336.7,204.4z"/>
	<path d="M391.4,226.4c-1.4,0.8-2.9,1.1-4.5,0.9c-2.4-0.5-3.7-3.1-4.7-5.4l-8.9-20.7c-2-4.6-4-9.3-4.7-14.1c-0.1,0.3-0.1,0.7-0.2,1
		c-0.8,7,2,13.9,4.8,20.3l8.9,20.7c1,2.3,2.3,4.9,4.7,5.4c1.5,0.2,3.1-0.1,4.5-0.9c8.2-3.8,14.8-11.1,23.5-13.4
		c-0.5-2.3-1.4-4.4-2.7-6.3C404.8,216.8,398.8,222.9,391.4,226.4z"/>
	<path d="M375.3,161.3c-3.5,3.8-8.7,5.4-13.2,7.8c-2.7,1.4-5.3,3.2-8,4.6c-2.7,1.5-5.8,2.4-8.9,2.4c-1.4,0-2.9-0.3-3.9,0.6
		c0.2,2.2,0.9,4.4,1.2,6.7c0.9-0.1,1.8-0.1,2.7-0.1c3.1,0,6.2-0.9,8.9-2.4c2.7-1.4,5.3-3.2,8-4.6c3-1.6,6.3-2.8,9.1-4.6
		C372.8,168.4,374.2,164.9,375.3,161.3z"/>
</g>
<path class="st12" d="M383.2,67.9c0.2,2.3-0.6,4.5-2.3,6.1c-0.5,0.5-1.2,0.8-1.7,1.3c-1.8,1.9-1.8,4.8,0.1,6.6
	c0.2,0.2,0.4,0.3,0.6,0.5c1.8,1.1,4.1,0.8,6.2,0.4c2.8-0.4,5.5-1.1,8.1-2.1c2.6-1,4.9-2.9,6.4-5.2c-2.2-1.4-3.6-3.9-3.6-6.5
	c-0.1-2.6,0.6-5.5-1.1-7.5s-4.5-1.9-7-1.3c-1.2,0.3-2.4,0.8-3.6,1.1c-0.6,0.2-2.6,0.2-3,0.6C381.5,62.9,383.1,66.6,383.2,67.9z"/>
<path class="st13" d="M383.2,67.9c0.2,2.3-0.6,4.5-2.3,6.1c-0.5,0.5-1.2,0.8-1.7,1.3c-1.8,1.9-1.8,4.8,0.1,6.6
	c0.2,0.2,0.4,0.3,0.6,0.5c1.8,1.1,4.1,0.8,6.2,0.4c2.8-0.4,5.5-1.1,8.1-2.1c2.6-1,4.9-2.9,6.4-5.2c-2.2-1.4-3.6-3.9-3.6-6.5
	c-0.1-2.6,0.6-5.5-1.1-7.5s-4.5-1.9-7-1.3c-1.2,0.3-2.4,0.8-3.6,1.1c-0.6,0.2-2.6,0.2-3,0.6C381.5,62.9,383.1,66.6,383.2,67.9z"/>
<circle class="st12" cx="390.2" cy="54.4" r="13.4"/>
<path class="st12" d="M347.8,157.3c-0.2,1.1-0.7,2.1-1.3,3c-1.6,2.8-2.1,6-1.6,9.1c0.6,3.2,2.7,5.8,5.6,7.1c1.2,0.6,2.7,0.5,3.9-0.2
	c-1.8-2.3-1.9-5.5-1.8-8.4c0-0.5,0.1-1.1,0.4-1.6c0.3-0.5,0.9-0.6,1.4-0.3c0,0,0,0,0,0c0,1.9,0.3,3.7,1,5.4c0.3,0.6,0.8,1.4,1.5,1.4
	c1,0,1.3-1.4,1.2-2.4c-0.1-4.2-0.4-8.5-2.4-12.1c-0.9-1.2-1.6-2.6-2-4.1c0-0.5-0.2-1-0.5-1.4c-0.2-0.2-0.5-0.3-0.8-0.4
	c-1.1-0.3-3.9-1.3-4.8-0.3S348,155.9,347.8,157.3z"/>
<path class="st14" d="M367.7,86c-1.5-0.2-2.8,1.2-3.6,2.5c-3.1,4.8-5.4,10.2-6.7,15.8c-0.6,2.9-1,5.9-2.4,8.5
	c-0.3,0.5-0.6,1.1-0.8,1.7c-0.1,0.9-0.2,1.9-0.1,2.8c-0.1,1.7-1.1,3.2-1.5,4.8c-0.2,1-0.2,2-0.3,3c-0.3,1.7-1.2,3.3-1.9,4.9
	c-1.1,2.9-1.1,6.1-1.9,9.1c-0.1,0.5-0.3,0.9-0.6,1.3c-0.5,0.6-1.4,0.7-2.1,1.1c-1.1,0.7-1.9,1.8-2.1,3.1c-0.2,1.3-0.2,2.6-0.1,3.8
	l0.6,7.9c0.6-0.3,1-1,1.6-1.4c1-0.8,2.4-0.6,3.6-0.4l1.8,0.3c1.9,0.3,3.9,0.8,5,2.2c0.9-1.5,0.4-3.6,1.9-4.6
	c0.5-0.3,1.1-0.4,1.5-0.7c0.9-0.6,1.5-1.7,1.6-2.8c0-1.1-0.1-2.2-0.5-3.3c2.3-1,3.8-3.3,4.7-5.7c1-2.8,1.7-5.8,2.2-8.8
	c2.1-11.8,4-23.7,4.2-35.6c0.1-2-0.1-4-0.6-5.9C370.7,87.9,369.7,86.2,367.7,86z"/>
<path class="st15" d="M367.7,86c-1.5-0.2-2.8,1.2-3.6,2.5c-3.1,4.8-5.4,10.2-6.7,15.8c-0.6,2.9-1,5.9-2.4,8.5
	c-0.3,0.5-0.6,1.1-0.8,1.7c-0.1,0.9-0.2,1.9-0.1,2.8c-0.1,1.7-1.1,3.2-1.5,4.8c-0.2,1-0.2,2-0.3,3c-0.3,1.7-1.2,3.3-1.9,4.9
	c-1.1,2.9-1.1,6.1-1.9,9.1c-0.1,0.5-0.3,0.9-0.6,1.3c-0.5,0.6-1.4,0.7-2.1,1.1c-1.1,0.7-1.9,1.8-2.1,3.1c-0.2,1.3-0.2,2.6-0.1,3.8
	l0.6,7.9c0.6-0.3,1-1,1.6-1.4c1-0.8,2.4-0.6,3.6-0.4l1.8,0.3c1.9,0.3,3.9,0.8,5,2.2c0.9-1.5,0.4-3.6,1.9-4.6
	c0.5-0.3,1.1-0.4,1.5-0.7c0.9-0.6,1.5-1.7,1.6-2.8c0-1.1-0.1-2.2-0.5-3.3c2.3-1,3.8-3.3,4.7-5.7c1-2.8,1.7-5.8,2.2-8.8
	c2.1-11.8,4-23.7,4.2-35.6c0.1-2-0.1-4-0.6-5.9C370.7,87.9,369.7,86.2,367.7,86z"/>
<path class="st16" d="M401.5,73.2c-2.2,2.3-5,4-8.1,4.7c-3.1,0.8-6.3,1.2-9.5,1.4c-1,0.2-2,0.1-2.9-0.2c-1-0.4-1.5-1.4-1.2-2.4
	c0.2-0.3,0.3-0.6,0.4-0.9c0-0.8-1.2-0.9-2-0.6c-5.2,1.6-10.1,4.8-12.5,9.6c-1.2,2.8-2,5.8-2.2,8.8c-1.1,8-2.2,16.1-0.7,24
	c0.8,4.2,2.4,8.3,2.4,12.6c0.1,2.4-0.4,4.8-0.3,7.2c-0.1,0.8,0.2,1.7,0.6,2.4c0.4,0.4,0.9,0.7,1.2,1.2c0.4,0.8-0.1,2,0.4,2.8
	c0.7,0.9,2.2,0.3,3.1-0.4c4.9-3.3,10.7-4.8,16.6-4.2c7,0.8,14,4.5,20.8,2.6c-0.4-0.5-0.7-1.1-0.9-1.6c-3.4-11.2-3.2-23.6,1.9-34.2
	c1.7-3.6,4-7,4.7-10.9c0.3-1.8,0.3-3.7,0.1-5.6c-0.2-3.6-1.3-7.1-3.1-10.2C408.3,76.2,405.1,73.6,401.5,73.2z"/>
<path class="st12" d="M369.1,160.7c-0.5,1.5-0.8,3-0.8,4.6c0,1.5,0,3,0.2,4.4c0.1,1.3,0.6,2.5,1.3,3.5c0.8,1,2.1,1.5,3.3,1.2
	c1-0.4,1.7-1.2,2-2.2c0.3-1,0.5-2,0.6-3.1c0.6-3,2.2-5.9,2.2-9c0-0.4,0-0.7-0.2-1.1c-0.6-1.3-3.4-2.7-4.8-2.5
	C371.3,156.8,369.7,159.2,369.1,160.7z"/>
<path class="st13" d="M407.8,84.5c-0.3,2.7,2.3,4.7,3.3,7.1c0.4,1.2,0.6,2.4,0.7,3.6c0.7,8.5,0.2,17.1-0.4,25.6
	c-0.1,2.8-0.4,5.7-1,8.4c-1.4,5.8-5,10.9-8.5,15.8c-0.5,0.8-1.1,1.5-1.8,2.2c-1,0.8-2.1,1.5-3.4,2l-11.9,5.8
	c-1.5,0.7-2.9,1.5-4.2,2.4c-1.5,1.2-2.7,2.8-3.5,4.6c-2.3-1.2-4.7-2.2-7-3.4c-0.5-0.3-1.1-0.6-1.2-1.2c-0.1-0.8,0.7-1.4,1.3-2
	c1.1-1.1,1.4-2.7,2-4.1c1.9-4.6,6.7-7.5,8.5-12.2c0.7-1.8,0.9-3.8,2.1-5.3c0.7-0.8,1.4-1.4,2.3-2c1.8-1.6,3.5-3.3,5-5.1
	c0.7-0.7,1.2-1.5,1.6-2.4c0.4-1.4,0.5-2.8,0.4-4.2c0.1-4.7,2.2-9,3.5-13.5c1.2-4.2,1.7-8.6,3.3-12.7S403.5,85.6,407.8,84.5z"/>
<path class="st17" d="M409.3,84.5c-0.3,2.7,2.3,4.7,3.3,7.1c0.4,1.2,0.7,2.4,0.7,3.6c0.7,8.5,0.2,17.1-0.4,25.6
	c-0.1,2.8-0.4,5.7-1,8.4c-1.4,5.8-5,10.9-8.5,15.8c-0.5,0.8-1.1,1.5-1.8,2.2c-1,0.8-2.1,1.5-3.4,2l-11.9,5.8
	c-1.5,0.7-2.9,1.5-4.2,2.4c-1.5,1.2-2.7,2.8-3.5,4.6c-2.3-1.2-4.7-2.2-7-3.4c-0.5-0.3-1.1-0.6-1.2-1.2c-0.1-0.8,0.7-1.4,1.3-2
	c1.1-1.1,1.4-2.7,2-4.1c1.9-4.6,6.7-7.5,8.5-12.2c0.7-1.8,0.9-3.8,2.1-5.3c0.7-0.8,1.4-1.4,2.3-2c1.8-1.6,3.5-3.3,5-5.1
	c0.7-0.7,1.2-1.5,1.6-2.4c0.4-1.4,0.5-2.8,0.4-4.2c0.1-4.7,2.2-9,3.5-13.5c1.2-4.2,1.7-8.6,3.3-12.7S405.1,85.6,409.3,84.5z"/>
<path class="st4" d="M396.8,33.7c-4.1-0.5-8.3,0.4-11.9,2.5c0.5,0,1.1,0,1.6,0.1c10.5,1.3,17.9,10.8,16.7,21.2
	c-0.7,5.9-4.2,11.2-9.3,14.2c10.5,0.3,19.3-7.9,19.7-18.5C413.8,43.4,406.6,34.9,396.8,33.7L396.8,33.7z"/>
<path class="st4" d="M402.7,44.3c0.9,2.1,1,4.5,0.1,6.7c-0.1-0.3-0.2-0.5-0.3-0.8c-2.4-5.2-9.6-7.4-16.2-4.8c-3.6,1.3-6.4,4-7.8,7.5
	c-1.7-5.1,1.7-10.9,8-13.3C393.1,36.9,400.3,39,402.7,44.3z"/>
<g class="st11">
	<path d="M402.7,50.5c-0.6-7.5-5.6-14-12.8-16.5c-1.8,0.4-3.5,1.1-5.1,2c0.5,0,1.1,0,1.6,0.1C394.4,37.2,400.8,42.9,402.7,50.5z"/>
	<path d="M405.8,36.6c-0.6-7.5-5.6-14-12.8-16.5c-1.8,0.4-3.5,1.1-5.1,2.1c0.5,0,1.1,0,1.6,0.1C397.4,23.3,403.9,29,405.8,36.6z"/>
	<path d="M405.9,15.8c-0.4-4.5-3.4-8.4-7.7-9.9c-1.1,0.3-2.1,0.7-3.1,1.2c0.3,0,0.6,0,1,0.1C400.8,7.8,404.7,11.2,405.9,15.8z"/>
	<path d="M413,48c0.8,9.5-5.5,18-14.8,20.2c-1.3,1.4-2.8,2.6-4.4,3.6c10.5,0.4,19.4-7.8,19.8-18.4C413.7,51.5,413.5,49.7,413,48z"/>
</g>
<linearGradient id="SVGID_2_" gradientUnits="userSpaceOnUse" x1="517.3389" y1="309.6981" x2="646.7615" y2="309.6981" gradientTransform="matrix(0.9947 -0.1028 -0.1028 -0.9947 -8.0539 801.126)">
	<stop  offset="0" style="stop-color:#808080;stop-opacity:0.25"/>
	<stop  offset="0.54" style="stop-color:#808080;stop-opacity:0.12"/>
	<stop  offset="1" style="stop-color:#808080;stop-opacity:0.1"/>
</linearGradient>
<path class="st18" d="M582.2,247.7c-2.5-2.1-6.1-2.3-8.8-0.4c-2,1.5-2.9,3.9-3.7,6.3c-1.2,3.4-3.1,6.8-3.5,10.4
	c-0.9,10-7.9,18.4-10,28.2c-0.8,3.5-0.9,7.2-2.4,10.5c-0.7,1.4-1.5,2.8-2.4,4.1c-3.5,5.5-6.5,11.4-9,17.4c-1.7,0.5-3.2,2.2-4.6,3.5
	c-1.8,1.7-3.9,3-6.2,3.8c-1,0.2-1.8,0.6-2.6,1.3c-1,1.1-1,2.8-1.8,4c-0.6,0.8-1.4,1.4-2.3,1.9c-0.1-0.3-0.1-0.6-0.1-0.9
	c-0.2-1.5-0.4-3.1-0.5-4.6c4.8-7,3.8-16.5-2.4-22.4c-0.2-2.4-0.1-4.8,0.2-7.2c0.3-1.2-0.1-2.4-1-3.2c-0.5-0.3-1.1-0.4-1.6-0.6
	c-0.8-0.5-1.4-1.2-1.9-1.9c-2.9-3.3-7.8-4-11.5-1.7c-2.8,1.9-4.3,5.2-6.7,7.6c-1.2,1.2-2.7,2.2-3.9,3.4c-2.5,2.6-4.1,6-4.6,9.5
	c-0.5,3.5-0.7,7.1-0.4,10.7c0,1.1,0.1,2.2,0.5,3.2c0.4,0.8,0.8,1.6,1.5,2.3c2.9,3.8,6.8,6.8,11.2,8.7c0,0.2,0,0.4,0,0.6
	c0,0.3,0,0.7-0.1,1l-0.5-0.1c-1.8-0.2-3.7,0-5.4-0.7c-2.8-1.2-4-4.9-6.8-6.3c-0.2-0.1-0.5-0.2-0.7-0.3c-0.7-4.7-2-9.2-4.1-13.4
	c-1-2-2.1-4.1-2.2-6.3c0.1-2.1,0.5-4.2,1.4-6.1c2.3-6.9,4-13.9,5.3-21c0.9-4.5,1.8-8.9,2.7-13.4c1.2-1.1,2.3-2.4,3.3-3.8
	c1.9-2.8,3.1-6,3.3-9.4c0.2-3.4-1-6.7-3.3-9.3c-1-1.2-2.5-2-4.1-2c-1.4,0.2-2.6,0.9-3.4,2c-1.2,1.7-2.1,3.6-2.6,5.7
	c-1,3.3-2,6.8-1.5,10.2c0.4,2.9,1.8,5.9,0.4,8.4c-4.7,8.2-7.9,17.4-11.4,26.2c-0.9,2.1-1.6,4.3-2.2,6.5c-0.7,3.6-0.8,7.2-0.4,10.9
	c0.8,6.8,2.1,13.5,3.9,20.1c0.7,3,1.6,6.2,3.3,8.6c-0.6,3.4-0.8,6.8-0.4,10.2c0,0.8,0.2,1.6,0.6,2.2c0.6,0.8,1.3,1.5,2.1,2.1
	c2.2,2,3.4,4.9,3.3,7.8c0,2.7,0.6,5.4,1.6,8c2.4,7.1,4.8,14.3,6.9,21.5c0.5,1.3,0.7,2.7,0.7,4.1c0,2-1,4-0.5,6
	c0.3,0.9,0.6,1.8,0.8,2.8c0,0.7-0.1,1.5-0.3,2.1c-1.3,5.6-5.1,18.7-4.4,24.5l1.3-0.5c-0.5,7.6-2.9,15.1-3.8,22.8
	c-0.6,5.6-0.5,11.2,0.2,16.7c0.4,2.5,0.6,5,0.6,7.5c0,2.2-0.4,4.5-0.5,6.7c0,3,0.1,6,0.5,9c0.4,4.7,1.1,9.3,2.2,13.9
	c2.1,7.8,0.7,15.8,0.9,23.9c0.3,5.6,0.2,11.2-0.2,16.8c-0.2,2.4-0.5,4.7-0.6,7.1c-0.2,7.1,1.9,14.1,1.1,21.1c-0.3,3.3-1.2,7,0.9,9.6
	c0.7,0.8,1.5,1.4,2.2,2.2c0.8,0.7,1.1,1.8,0.9,2.8c-0.3,0.8-1,1.4-1.2,2.2c-0.2,1.3,1.2,2.2,2.5,2.6l0.3,0.1
	c-0.1,0.9,0.3,1.7,0.9,2.4c0.8,0.6,1.7,1,2.7,1.1l16,3.1c3.6,0.7,7.5,1.3,10.8,0.1c0.1,0.5,0.4,0.9,0.8,1.3c0.8,0.6,1.7,1,2.7,1.1
	l16,3.1c4.1,0.8,8.6,1.5,12.2-0.5c1-0.6,1.9-1.4,2.6-2.4c1-1.9,1.2-4.2,0.3-6.2c-0.3-1-0.9-1.9-1.8-2.6c-1.1-0.6-2.4-0.9-3.7-0.8
	c-1.1,0.1-2.2-0.1-3.2-0.5c-0.3-0.2-0.6-0.4-0.8-0.7c0.8-1,1.6-2,2.3-3c-0.7-0.2-1-1.1-1.2-1.8c-2.1-10.4,0.8-21,1.2-31.6
	c0.2-5.3-0.2-10.6-1.2-15.8c-0.4-2-0.9-3.9-1.1-5.9c-1.5-10.3,2.5-20.8,1.2-31.2c-0.6-4.8,1.5-9.9,2.2-14.7c0.7-4.3,0.2-8.6-0.2-13
	l-3.3-34c-0.5-4.6-0.9-9.3-2.9-13.5c-1-2.3-1.4-4.9-1.4-7.4c4-2.3,7.7-5.4,12.2-5.5c0.9-3.3-1.6-13.7-3.1-16.8
	c-5.7-12.1-7.9-25.6-6.5-39c0.5-4.8-1.4-9.6-0.7-14.4c0.1-1.1,0.4-2.2,0.9-3.2c0.5-1,1.5-1.7,2.7-1.8c-0.3-2.9-0.7-5.8-1.1-8.6
	c1.6-1.7,3-3.6,4-5.8c2.1-4.4,3-9.1,4.2-13.8c2.2-8.2,5.6-16,8.2-24.1s2.1-16.6,4-24.9c1.1-4.6,3.9-8.5,7.8-11.1
	c1.5-1,3.2-1.8,4.3-3.2c0.8-1.2,1.2-2.6,1.2-4.1C585.9,252.9,584.6,249.8,582.2,247.7z M521.1,597.5c0.3-0.4,0.6-0.8,0.9-1.2
	c-1.1-0.1-2.4-0.7-2.5-1.7c0-1.1,0.1-2.1,0.3-3.2c0.3-1.8,0.2-3.7-0.3-5.5c-0.4-1.2-0.9-2.4-1.3-3.7c-0.4-1.4-0.7-2.8-0.9-4.2
	c-1-5.1-2.5-10-4.5-14.8c-2-4.6-0.5-9.6-0.4-14.7c0-2.4-0.4-4.8,0.2-7.1c0.3-1.4,1-2.6,1.4-4c0.8-3.2-0.2-6.5-1.2-9.6
	c4-9.3,4.5-20,5.3-30.2c0.5-5.7,0.9-11.3,1.4-17c0.2-2.5,0.4-5.2,1.8-7.3c2.4,7.2,3.8,14.7,4.2,22.3c0,2.2,0.3,4.4,0.8,6.5
	c0.6,2.4,1.9,4.5,2.7,6.8c1.8,5.1,1.6,10.6,2.5,15.9c0.3,2.2,0.8,4.3,1.2,6.4c1.4,9.5-0.8,19.1-3.1,28.4c-1.4,5.7-1.1,12-1.5,17.9
	c-0.3,5.6-0.6,11.3-0.5,16.9c0,1.7,0.1,3.5,0.1,5.2c-0.5-0.1-1.1-0.1-1.6-0.1c-1.1,0.1-2.2-0.1-3.2-0.5
	C521.9,598.8,521.4,598.2,521.1,597.5z"/>
<path class="st19" d="M556,605.3c1.3-0.1,2.6,0.2,3.7,0.8c0.8,0.7,1.5,1.6,1.8,2.6c0.8,2,0.7,4.3-0.4,6.2c-0.6,1-1.5,1.8-2.6,2.4
	c-3.6,2-8.1,1.3-12.2,0.5l-16-3.1c-1-0.1-1.9-0.4-2.7-1c-1-1.1-1.2-2.7-0.5-4c0.7-1.3,1.7-2.3,3-3c4.6-2.9,10-4,15.3-4.6
	c2-0.2,3.9-0.9,5.4,0.5c0.8,0.7,0.8,1.6,1.9,2.2C553.8,605.3,554.9,605.4,556,605.3z"/>
<path class="st19" d="M525.8,599.8c1.3-0.1,2.6,0.2,3.7,0.8c0.9,0.6,1.5,1.6,1.8,2.6c0.8,2,0.7,4.3-0.3,6.2c-0.6,1-1.5,1.8-2.6,2.4
	c-3.6,2-8.1,1.3-12.2,0.5l-16-3.1c-1-0.1-1.9-0.4-2.7-1c-1-1.1-1.2-2.7-0.5-4c0.7-1.3,1.8-2.3,3-3c4.6-2.8,10-4,15.3-4.6
	c2-0.2,3.9-0.9,5.4,0.5c0.8,0.7,0.8,1.6,1.9,2.2C523.6,599.8,524.7,599.9,525.8,599.8z"/>
<path class="st4" d="M521.8,429.8c-9.2,0-18.5,0.7-27.6,2.1c-0.6,0.1-1.2,0.2-1.8,0.5c-1.9,1-2,3.7-2,5.9c0.1,8.9-2.9,17.5-3.9,26.3
	c-0.6,5.5-0.5,11.1,0.2,16.6c0.4,2.5,0.6,5,0.6,7.5c0,2.2-0.4,4.4-0.5,6.7c0,3,0.1,6,0.5,8.9c0.4,4.6,1.1,9.3,2.2,13.8
	c2.1,7.7,0.7,15.7,0.9,23.7c0.3,5.6,0.2,11.2-0.2,16.7c-0.2,2.4-0.5,4.7-0.6,7.1c-0.2,7,1.9,14,1.1,21c-0.3,3.3-1.2,7,0.9,9.5
	c0.7,0.8,1.5,1.4,2.2,2.2c0.8,0.7,1.1,1.8,0.9,2.8c-0.3,0.8-1,1.4-1.2,2.2c-0.2,1.3,1.2,2.2,2.5,2.6c9.7,3,20.2-0.8,25.8-9.3
	c-1.1-0.1-2.4-0.7-2.5-1.7c0-1.1,0.1-2.1,0.3-3.1c0.3-1.8,0.2-3.7-0.3-5.5c-0.4-1.2-0.9-2.4-1.3-3.7c-0.4-1.4-0.7-2.8-0.9-4.2
	c-1-5.1-2.5-10-4.5-14.7c-2-4.6-0.4-9.6-0.4-14.6c0-2.4-0.4-4.8,0.2-7c0.3-1.4,1-2.6,1.4-4c0.8-3.2-0.2-6.5-1.2-9.5
	c4-9.3,4.5-19.9,5.3-30l1.4-17c0.2-2.5,0.4-5.1,1.8-7.3c2.4,7.2,3.8,14.6,4.2,22.2c0,2.2,0.3,4.4,0.8,6.5c0.6,2.3,1.8,4.5,2.7,6.8
	c1.8,5,1.6,10.5,2.4,15.8c0.3,2.1,0.8,4.2,1.1,6.4c1.4,9.4-0.9,19-3.1,28.2c-1.4,5.7-1.2,12-1.5,17.8c-0.3,5.6-0.6,11.2-0.5,16.8
	c0.1,5.2,0.5,10.7-2.2,15c3.1,1.6,6.3,3.2,9.8,3.5c4,0.2,8-1,11.2-3.4c3.2-2.4,6-5.3,8.2-8.6c-0.7-0.2-1-1.1-1.2-1.8
	c-2.1-10.3,0.8-20.9,1.3-31.4c0.2-5.3-0.2-10.5-1.2-15.7c-0.4-2-0.9-3.9-1.2-5.8c-1.5-10.3,2.5-20.7,1.2-31
	c-0.6-4.8,1.5-9.8,2.2-14.6c0.7-4.2,0.2-8.6-0.2-12.9l-3.3-33.8c-0.4-4.6-0.9-9.2-2.9-13.4c-2.3-5-0.9-11.2-1.1-16.7
	C539.7,427.7,530.8,429.6,521.8,429.8z"/>
<path class="st12" d="M541.1,329.9c2.7-7.4,6.3-14.5,10.5-21.2c0.9-1.3,1.7-2.7,2.4-4.1c1.5-3.2,1.6-6.9,2.4-10.4
	c2.2-9.7,9.2-18.1,10.1-28c0.3-3.6,2.3-6.9,3.5-10.3c0.8-2.3,1.7-4.8,3.7-6.2c2.7-1.8,6.3-1.6,8.8,0.4c2.4,2.1,3.7,5.2,3.5,8.4
	c0,1.4-0.4,2.9-1.2,4.1c-1.1,1.5-2.8,2.3-4.3,3.2c-3.9,2.5-6.7,6.5-7.8,11c-1.9,8.2-1.4,16.7-4.1,24.7s-6,15.8-8.2,24
	c-1.2,4.6-2.1,9.4-4.2,13.7s-5.6,8.2-10.3,9.3c-0.3-3-1.1-5.9-2.3-8.6C542.2,336.7,540,333.1,541.1,329.9z"/>
<path class="st12" d="M490.8,341.3c-0.4-5.8-1.9-11.6-4.4-16.8c-1-2-2.1-4-2.2-6.3c0.1-2.1,0.5-4.1,1.4-6c2.3-6.8,4.1-13.8,5.3-20.9
	l2.8-13.3c1.2-1.1,2.3-2.4,3.2-3.8c1.9-2.8,3.1-6,3.3-9.4c0.2-3.4-1-6.7-3.3-9.2c-1-1.2-2.5-1.9-4.1-1.9c-1.4,0.2-2.6,0.9-3.4,2
	c-1.2,1.7-2.1,3.6-2.5,5.6c-1,3.3-2,6.7-1.6,10.1c0.4,2.8,1.8,5.9,0.4,8.4c-4.7,8.1-7.9,17.3-11.4,26c-0.9,2.1-1.6,4.3-2.2,6.5
	c-0.7,3.6-0.8,7.2-0.4,10.8c0.8,6.8,2.1,13.4,3.9,20c1,4.1,2.2,8.6,5.7,11.1C484.1,349.5,487,345,490.8,341.3z"/>
<circle class="st12" cx="510.3" cy="325.3" r="17.2"/>
<path class="st12" d="M503.9,344.1c-0.1,3.1-1.5,6.1-2.8,8.9c-0.8,1.7-1.9,3.6-3.7,4c5.2,2.1,10.6,3.6,16.1,4.6
	c1.9,0.4,3.8,0.5,5.8,0.3c1.6-0.3,3.2-0.9,4.6-1.7c6.3-3.6,10.6-9.8,11.7-17c-2.1,0.3-4.3,0.3-6.4,0.2c-1.2,0-2.4-0.4-3.3-1.2
	c-0.6-0.8-0.9-1.7-0.9-2.7c-0.4-2.8-0.7-5.7-0.9-8.5c-4.2,0.2-8.4,1.1-12.3,2.8c-1.6,0.7-3.2,1.5-4.8,2.1c-1,0.4-3.9,0.4-4.6,1.1
	C501.3,338,504,342,503.9,344.1z"/>
<path class="st20" d="M512.5,353.7c-0.9-4.6-4.5-8.1-9.1-8.7c-1.8-0.2-3.7,0-5.4-0.7c-2.8-1.2-4-4.8-6.8-6.2s-6.3-0.1-8.4,2.3
	s-2.9,5.6-3.5,8.6c-1,4.2-1.3,8.4-0.9,12.7c0,0.8,0.3,1.5,0.6,2.2c0.6,0.8,1.3,1.5,2,2.1c2.2,2,3.4,4.8,3.3,7.8c0,2.7,0.6,5.4,1.6,8
	c2.4,7.1,4.8,14.2,6.9,21.4c0.5,1.3,0.7,2.7,0.7,4.1c0,2-1,4-0.5,6c0.3,0.9,0.6,1.8,0.8,2.8c0,0.7-0.1,1.4-0.3,2.1
	c-1.3,5.6-5.1,18.6-4.4,24.3c8.5-3.1,21.4-5,30.4-6c2.5-0.3,5-0.4,7.5-0.4c6,0,12.3,1.1,17.9-1.1c5.2-2,9.5-6.8,15.1-6.8
	c0.9-3.3-1.6-13.6-3.1-16.7c-5.7-12.1-7.9-25.4-6.5-38.7c0.5-4.8-1.4-9.6-0.7-14.3c0.1-1.1,0.4-2.2,0.9-3.2c0.5-1,1.5-1.7,2.7-1.8
	c-0.7-7.4-2.1-14.8-4.3-21.9c-0.8-2.5-2.3-5.5-4.9-5.6c-2.4-0.2-4.2,2-5.9,3.7c-1.8,1.7-3.9,3-6.2,3.8c-1,0.2-1.8,0.6-2.6,1.3
	c-1,1-1,2.8-1.8,4c-1.4,2.2-5.1,2.4-6,4.9c-0.2,0.7-0.3,1.5-0.4,2.2c-0.4,1.5-1.2,2.8-2.4,3.8C517,351.3,514.9,352.8,512.5,353.7z"
	/>
<path class="st4" d="M522.3,305.7c0.3-1.2-0.1-2.4-1-3.1c-0.5-0.2-1.1-0.5-1.6-0.6c-0.8-0.5-1.4-1.2-1.9-1.9
	c-2.9-3.3-7.7-4-11.5-1.7c-2.8,1.9-4.3,5.2-6.7,7.5c-1.2,1.2-2.7,2.2-3.9,3.4c-2.5,2.6-4.1,5.9-4.6,9.5c-0.5,3.5-0.7,7.1-0.4,10.7
	c0,1.1,0.1,2.2,0.5,3.2c0.4,0.8,0.9,1.6,1.5,2.3c3,4,7.1,7,11.8,8.9c4.7,1.7,10.2,1.5,14.4-1.2c0.4-0.2,0.8-0.6,1-1
	c0.2-0.6,0.2-1.3,0-1.9c-0.5-2.5-0.3-5.1,0.7-7.4c0.8-1.6,1.6-3.3,2.2-5c0.4-2,0.5-4,0.2-6C522.4,316,521.5,310.8,522.3,305.7z"/>
<path class="st4" d="M812.9,572c0,98.4,61.7,178,138,178"/>
<path class="st6" d="M950.9,750c0-99.5,68.9-180,154-180"/>
<path class="st6" d="M862.9,580.8c0,93.5,39.3,169.1,88,169.1"/>
<path class="st4" d="M950.9,750c0-127.1,79.6-230,178-230"/>
<ellipse class="st0" cx="944.9" cy="778.1" rx="34.3" ry="5.8"/>
<path class="st7" d="M921.8,751.2c0,0,19.6-0.6,25.5-4.8s30.1-9.2,31.6-2.5s29.4,33.5,7.3,33.7s-51.3-3.4-57.2-7
	S921.8,751.2,921.8,751.2z"/>
<path class="st8" d="M986.5,775.2c-22.1,0.2-51.3-3.4-57.2-7c-4.5-2.7-6.3-12.5-6.9-17.1h-0.7c0,0,1.2,15.8,7.1,19.4
	s35.1,7.2,57.2,7c6.4,0,8.6-2.3,8.5-5.7C993.7,774,991.3,775.2,986.5,775.2z"/>
<path class="st21" d="M815.5,36.6c0.9-1.2,1.3-2.7,1.4-4.2c0-9.1-18.6-16.5-41.5-16.5s-41.5,7.4-41.5,16.5c0,1.7,0.6,3.3,1.6,4.7
	c-25.5,2.8-42.7,8.2-42.7,14.3c0,9.1,38,16.5,85,16.5s85-7.4,85-16.5C862.9,45,843.5,39.3,815.5,36.6z"/>
<path class="st21" d="M306.5,54.6c0.9-1.2,1.3-2.7,1.4-4.2c0-9.1-18.6-16.5-41.5-16.5s-41.5,7.4-41.5,16.5c0,1.7,0.6,3.3,1.7,4.7
	c-25.5,2.8-42.7,8.2-42.7,14.3c0,9.1,38.1,16.5,85,16.5s85-7.4,85-16.5C353.9,63,334.5,57.3,306.5,54.6z"/>
<path class="st22" d="M598.3,40.7c2.3-1.3,5.5-0.1,7.1,2.1s2,5,2.5,7.6c0.9,5.9,1.5,12.7-2.5,17.2c6.5-19.8,25.3-34.9,46-37.1"/>
<path class="st22" d="M264.7,141.7c1.5-0.9,3.5,0,4.5,1.4c0.9,1.5,1.5,3.2,1.6,4.9c0.6,3.8,1,8.2-1.6,11c4.5-13,15.9-22.2,29.5-23.9
	"/>
<path class="st22" d="M714.7,171.7c1.5-0.9,3.5,0,4.5,1.4c0.9,1.5,1.5,3.2,1.6,4.9c0.6,3.8,1,8.2-1.6,11c4.5-13,15.9-22.2,29.5-23.9
	"/>
<path class="st0" d="M677.9,508v-24.3l11.2,11.2l2.8-2.9l-16-16l-16,16l2.8,2.8l11.2-11.1V508H677.9z"/>
<path class="st0" d="M435.9,588v-24.3l11.2,11.2l2.8-2.9l-16-16l-16,16l2.8,2.8l11.2-11.1V588H435.9z"/>
<path class="st0" d="M613.9,659v-24.3l11.2,11.2l2.8-2.9l-16-16l-16,16l2.8,2.8l11.2-11.1V659H613.9z"/>
</svg>
